<svg xmlns="http://www.w3.org/2000/svg" width="720" height="480" viewBox="0 0 720 480">
  <defs>
    <linearGradient id="bg3" x1="0" y1="0" x2="1" y2="1">
      <stop offset="0%" stop-color="#0a1224"/>
      <stop offset="100%" stop-color="#081122"/>
    </linearGradient>
  </defs>
  <rect width="720" height="480" rx="28" fill="url(#bg3)"/>
  <rect x="20" y="20" width="680" height="48" rx="16" fill="#132543"/>
  <circle cx="54" cy="44" r="8" fill="#f06565"/>
  <circle cx="80" cy="44" r="8" fill="#f6c74f"/>
  <circle cx="106" cy="44" r="8" fill="#62d2ff"/>
  <text x="40" y="100" fill="#e5f5ff" font-family="Inter, Helvetica, Arial, sans-serif" font-size="32" font-weight="700">Planner in action</text>
  <rect x="40" y="150" width="320" height="250" rx="20" fill="#0f1731" stroke="#52d2ff33" stroke-width="1.5"/>
  <rect x="380" y="150" width="300" height="250" rx="20" fill="#0f1731" stroke="#52d2ff33" stroke-width="1.5"/>
  <rect x="60" y="180" width="250" height="26" rx="12" fill="#1c325c"/>
  <rect x="60" y="220" width="240" height="22" rx="11" fill="#1f3165"/>
  <rect x="60" y="252" width="180" height="22" rx="11" fill="#224c7a"/>
  <rect x="60" y="284" width="220" height="22" rx="11" fill="#2a4b8c"/>
  <rect x="60" y="316" width="160" height="22" rx="11" fill="#2a4b8c"/>
  <rect x="60" y="348" width="200" height="22" rx="11" fill="#1f3165"/>
  <rect x="400" y="180" width="240" height="26" rx="12" fill="#1c325c"/>
  <rect x="400" y="220" width="240" height="22" rx="11" fill="#2a4b8c"/>
  <rect x="400" y="252" width="200" height="22" rx="11" fill="#2a4b8c"/>
  <rect x="400" y="284" width="220" height="22" rx="11" fill="#224c7a"/>
  <rect x="400" y="316" width="160" height="22" rx="11" fill="#224c7a"/>
  <rect x="400" y="348" width="180" height="22" rx="11" fill="#1f3165"/>
  <text x="40" y="440" fill="#8fa3c1" font-size="16">A focused planner layout for study tasks and exams.</text>
</svg>
