<svg xmlns="http://www.w3.org/2000/svg" width="720" height="480" viewBox="0 0 720 480">
  <defs>
    <linearGradient id="bg" x1="0" y1="0" x2="1" y2="1">
      <stop offset="0%" stop-color="#0b1222"/>
      <stop offset="100%" stop-color="#11203c"/>
    </linearGradient>
  </defs>
  <rect width="720" height="480" rx="28" fill="url(#bg)"/>
  <rect x="20" y="20" width="680" height="48" rx="16" fill="#12213f"/>
  <circle cx="54" cy="44" r="8" fill="#f06565"/>
  <circle cx="80" cy="44" r="8" fill="#f6c74f"/>
  <circle cx="106" cy="44" r="8" fill="#62d2ff"/>
  <text x="40" y="100" fill="#e5f5ff" font-family="Inter, Helvetica, Arial, sans-serif" font-size="32" font-weight="700">Weekly Study Board</text>
  <rect x="40" y="140" width="280" height="200" rx="20" fill="#0f1731" stroke="#52d2ff33" stroke-width="1.5"/>
  <rect x="40" y="140" width="280" height="42" rx="16" fill="#192641"/>
  <text x="60" y="170" fill="#d7eefc" font-size="18" font-weight="600">Today</text>
  <rect x="340" y="140" width="320" height="200" rx="20" fill="#0f1731" stroke="#52d2ff33" stroke-width="1.5"/>
  <rect x="340" y="140" width="320" height="42" rx="16" fill="#192641"/>
  <text x="360" y="170" fill="#d7eefc" font-size="18" font-weight="600">Tomorrow</text>
  <g fill="#7fbfff" opacity="0.95">
    <rect x="60" y="190" width="220" height="28" rx="12"/>
    <rect x="60" y="232" width="180" height="24" rx="12"/>
    <rect x="60" y="270" width="240" height="24" rx="12"/>
    <rect x="360" y="190" width="240" height="28" rx="12"/>
    <rect x="360" y="232" width="220" height="24" rx="12"/>
    <rect x="360" y="270" width="260" height="24" rx="12"/>
  </g>
  <text x="60" y="430" fill="#8fa3c1" font-size="16">Built to keep medical study planning fast and visual.</text>
</svg>
